<svg width="28" height="28" viewBox="0 0 28 28" fill="none" xmlns="http://www.w3.org/2000/svg">
<path fill-rule="evenodd" clip-rule="evenodd" d="M1.35889 8.43031C0.666626 9.69502 0.666626 11.2206 0.666626 14.2719V16.2999C0.666626 21.5011 0.666626 24.1017 2.22872 25.7175C3.79082 27.3333 6.30498 27.3333 11.3333 27.3333H16.6666C21.6949 27.3333 24.2091 27.3333 25.7712 25.7175C27.3333 24.1017 27.3333 21.5011 27.3333 16.2999V14.2719C27.3333 11.2206 27.3333 9.69502 26.641 8.43031C25.9488 7.1656 24.684 6.38067 22.1546 4.81082L19.4879 3.15582C16.8141 1.49638 15.4772 0.666656 14 0.666656C12.5227 0.666656 11.1858 1.49638 8.512 3.15582L5.84534 4.81083C3.31589 6.38067 2.05116 7.1656 1.35889 8.43031ZM9.99996 21C9.44767 21 8.99996 21.4477 8.99996 22C8.99996 22.5523 9.44767 23 9.99996 23H18C18.5522 23 19 22.5523 19 22C19 21.4477 18.5522 21 18 21H9.99996Z" fill="#97A2B0"/>
</svg>
