<svg width="33" height="34" viewBox="0 0 33 34" fill="none" xmlns="http://www.w3.org/2000/svg">
<path d="M9.10147 27.747L14.0079 21.4256L16.2522 24.4672L11.9264 30.3121C10.2697 32.5488 7.20405 30.1918 9.10147 27.747ZM14.8315 13.3516C15.2988 11.7317 15.084 10.3476 13.3282 8.29148L9.03775 2.80762C8.42888 2.04786 6.99401 3.16368 7.59345 4.08393L11.0249 8.57482C11.6739 9.41232 10.4679 10.5206 9.79767 9.65805L6.24826 5.0142C5.58746 4.2093 4.22104 5.27247 4.91251 6.19272C5.91314 7.47153 7.46129 9.56026 8.46192 10.8391C9.15575 11.5888 8.10084 12.6996 7.41645 11.7643L3.893 7.15057C3.37616 6.55379 2.53129 6.9249 2.30709 7.62198C2.06638 8.3667 2.65873 8.91082 3.06229 9.46247L6.99401 14.8586C8.21412 16.3605 9.57819 17.2507 11.1641 16.7467C11.4072 16.669 11.7045 16.511 12.0231 16.3029L22.5864 30.7911C23.1551 31.5709 24.2525 31.6536 24.9653 31.0243L25.1281 30.8813C25.9305 30.1717 26.0603 28.8754 25.3735 28.0379L14.1872 14.3821C14.5129 13.996 14.7513 13.6299 14.8315 13.3516ZM17.8216 16.511L19.5609 14.2693C17.3236 8.37673 25.6142 0.523309 29.6333 4.13408C34.5161 8.52467 27.2592 19.1062 22.1592 16.4909L20.099 19.2717L17.8216 16.511Z" fill="#97A2B0"/>
</svg>
